<svg xmlns="http://www.w3.org/2000/svg" viewBox="0 0 128 128">
  <defs>
    <linearGradient id="g" x1="0" y1="0" x2="1" y2="1">
      <stop offset="0" stop-color="#10b981"/>
      <stop offset="1" stop-color="#34d399"/>
    </linearGradient>
  </defs>
  <circle cx="64" cy="64" r="56" fill="url(#g)"/>
  <path d="M61 26l11 16-8 1c6 6 9 13 10 21l-11-2c-1-6-3-11-7-15l-5 7-9-15 19-13z" fill="#fff" opacity="0.95"/>
  <path d="M27 63l18-3-3 7c8 1 15 4 21 9l-8 8c-5-4-10-6-16-7l2 8-18-4 4-18z" fill="#fff" opacity="0.95"/>
  <path d="M86 102L74 87l8-1c-6-6-10-13-11-21l12 2c1 6 4 11 8 15l5-7 9 14-18 13z" fill="#fff" opacity="0.95"/>
</svg>
