<svg xmlns="http://www.w3.org/2000/svg" viewBox="0 0 512 512">
  <defs>
    <linearGradient id="g" x1="0" y1="0" x2="1" y2="1">
      <stop offset="0" stop-color="#10b981"/>
      <stop offset="1" stop-color="#34d399"/>
    </linearGradient>
  </defs>
  <rect width="512" height="512" rx="120" fill="url(#g)"/>
  <g fill="#fff" opacity="0.95" transform="translate(40 44) scale(3.35)">
    <path d="M61 26l11 16-8 1c6 6 9 13 10 21l-11-2c-1-6-3-11-7-15l-5 7-9-15 19-13z"/>
    <path d="M27 63l18-3-3 7c8 1 15 4 21 9l-8 8c-5-4-10-6-16-7l2 8-18-4 4-18z"/>
    <path d="M86 102L74 87l8-1c-6-6-10-13-11-21l12 2c1 6 4 11 8 15l5-7 9 14-18 13z"/>
  </g>
  <text x="256" y="444" text-anchor="middle" font-family="Arial, sans-serif" font-size="44" font-weight="700" fill="#ffffff" opacity="0.9">SWMS</text>
</svg>
